<svg height="100%" viewBox="0 0 422 190" fill="none" xmlns="http://www.w3.org/2000/svg" style="margin: auto;">
<path d="M418.054 157.641C400.306 146.625 384.394 133.773 369.706 119.085C364.81 114.189 356.242 117.86 356.242 124.593C356.242 130.101 355.63 135.609 355.63 141.116C302.386 150.908 249.142 155.192 194.673 155.804C148.773 157.028 86.9609 161.924 45.3449 139.892C13.5209 122.756 8.62489 82.975 22.0889 52.375C27.5969 39.523 37.3889 29.119 49.6289 21.775C63.7049 13.207 77.7809 18.103 92.4689 14.431C94.3049 13.819 94.9169 11.371 93.6929 9.53498C71.0489 -14.333 31.2689 13.207 16.5809 32.791C-4.22711 60.331 -5.45111 100.724 12.9089 129.487C39.8369 172.328 104.097 169.267 147.549 170.491C216.093 172.939 288.309 171.103 355.63 155.803C355.63 161.923 356.242 167.431 358.078 173.551C358.078 174.775 358.689 175.387 359.302 175.999C354.406 180.282 358.69 191.299 367.258 189.463C385.006 185.791 402.754 180.282 419.278 172.327C423.562 168.657 422.338 160.701 418.054 157.641ZM370.93 141.729C379.498 149.073 388.066 156.417 397.858 163.149C389.291 166.821 380.11 169.269 370.93 171.717C370.93 171.105 370.93 170.492 370.93 169.269C369.094 160.089 369.706 150.909 370.93 141.729Z" fill="black"/>
</svg>
