<svg width="216" height="155" viewBox="0 0 216 155" fill="none" xmlns="http://www.w3.org/2000/svg">
<path d="M213.513 58.5C212.913 58 207.513 53.9 195.913 53.9C192.913 53.9 189.813 54.2 186.813 54.7C184.613 39.4 171.913 32 171.413 31.6L168.313 29.8L166.313 32.7C163.813 36.6 161.913 41 160.813 45.5C158.713 54.2 160.013 62.4 164.413 69.4C159.113 72.4 150.513 73.1 148.713 73.2H6.71305C3.01305 73.2 0.0130517 76.2 0.0130517 79.9C-0.186948 92.3 1.91305 104.7 6.21305 116.4C11.1131 129.2 18.4131 138.7 27.8131 144.5C38.4131 151 55.7131 154.7 75.2131 154.7C84.0131 154.7 92.8131 153.9 101.513 152.3C113.613 150.1 125.213 145.9 135.913 139.8C144.713 134.7 152.613 128.2 159.313 120.6C170.613 107.9 177.313 93.7 182.213 81.1C182.913 81.1 183.513 81.1 184.213 81.1C196.513 81.1 204.113 76.2 208.313 72C211.113 69.4 213.213 66.2 214.713 62.6L215.613 60L213.513 58.5Z" fill="#0091E2"/>
<path d="M19.9134 69.0999H38.9134C39.8134 69.0999 40.6134 68.3999 40.6134 67.3999V50.3999C40.6134 49.4999 39.9134 48.7 38.9134 48.7H19.9134C19.0134 48.7 18.2134 49.3999 18.2134 50.3999V67.3999C18.3134 68.3999 19.0134 69.0999 19.9134 69.0999Z" fill="#0091E2"/>
<path d="M46.1131 69.0999H65.1131C66.0131 69.0999 66.8131 68.3999 66.8131 67.3999V50.3999C66.8131 49.4999 66.1131 48.7 65.1131 48.7H46.1131C45.2131 48.7 44.4131 49.3999 44.4131 50.3999V67.3999C44.5131 68.3999 45.2131 69.0999 46.1131 69.0999Z" fill="#0091E2"/>
<path d="M72.8133 69.0999H91.8133C92.7133 69.0999 93.5133 68.3999 93.5133 67.3999V50.3999C93.5133 49.4999 92.8133 48.7 91.8133 48.7H72.8133C71.9133 48.7 71.1133 49.3999 71.1133 50.3999V67.3999C71.1133 68.3999 71.8133 69.0999 72.8133 69.0999Z" fill="#0091E2"/>
<path d="M99.1131 69.0999H118.113C119.013 69.0999 119.813 68.3999 119.813 67.3999V50.3999C119.813 49.4999 119.113 48.7 118.113 48.7H99.1131C98.2131 48.7 97.4131 49.3999 97.4131 50.3999V67.3999C97.4131 68.3999 98.2131 69.0999 99.1131 69.0999Z" fill="#0091E2"/>
<path d="M46.1131 44.8H65.1131C66.0131 44.8 66.8131 44 66.8131 43.1V26.1C66.8131 25.2 66.1131 24.4 65.1131 24.4H46.1131C45.2131 24.4 44.4131 25.1 44.4131 26.1V43.1C44.5131 44 45.2131 44.8 46.1131 44.8Z" fill="#0091E2"/>
<path d="M72.8133 44.8H91.8133C92.7133 44.8 93.5133 44 93.5133 43.1V26.1C93.5133 25.2 92.8133 24.4 91.8133 24.4H72.8133C71.9133 24.4 71.1133 25.1 71.1133 26.1V43.1C71.1133 44 71.8133 44.8 72.8133 44.8Z" fill="#0091E2"/>
<path d="M99.1131 44.8H118.113C119.013 44.8 119.813 44 119.813 43.1V26.1C119.813 25.2 119.013 24.4 118.113 24.4H99.1131C98.2131 24.4 97.4131 25.1 97.4131 26.1V43.1C97.4131 44 98.2131 44.8 99.1131 44.8Z" fill="#0091E2"/>
<path d="M99.1131 20.4H118.113C119.013 20.4 119.813 19.7 119.813 18.7V1.70001C119.813 0.800012 119.013 0 118.113 0H99.1131C98.2131 0 97.4131 0.700012 97.4131 1.70001V18.7C97.4131 19.6 98.2131 20.4 99.1131 20.4Z" fill="#0091E2"/>
<path d="M125.613 69.0999H144.613C145.513 69.0999 146.313 68.3999 146.313 67.3999V50.3999C146.313 49.4999 145.613 48.7 144.613 48.7H125.613C124.713 48.7 123.913 49.3999 123.913 50.3999V67.3999C124.013 68.3999 124.713 69.0999 125.613 69.0999Z" fill="#0091E2"/>
</svg>
