<svg height="100%" viewBox="0 0 24 22" fill="none" xmlns="http://www.w3.org/2000/svg">
<path fill-rule="evenodd" clip-rule="evenodd" d="M0 18.5207C0.042602 19.0415 0.225319 19.5638 0.70413 20.265C1.27202 21.0966 2.24915 21.5536 2.9619 20.8204C3.44288 20.3256 8.64375 11.2343 11.1502 7.78934C11.4511 7.36409 12.0728 7.36409 12.3739 7.78934C14.8804 11.2343 20.0813 20.3256 20.5622 20.8204C21.2748 21.5536 22.2521 21.0966 22.82 20.265C23.3791 19.4462 23.5343 18.8714 23.5343 18.258C23.5343 17.8403 15.4345 2.76637 14.6188 1.51165C13.8343 0.304829 13.5947 0.0423355 12.2681 0L11.256 0C9.92932 0.0423355 9.68981 0.304829 8.90519 1.51165C8.10659 2.74031 0.32302 17.22 0 18.2133L0 18.5207Z" fill="currentColor"/>
</svg>
