<svg height="100%" viewBox="0 0 32 44" fill="none" xmlns="http://www.w3.org/2000/svg">
<path d="M0 35L15.234 6.43601C15.555 5.83401 16.423 5.84501 16.728 6.45601L22 17L0 35Z" fill="#FF8F00"/>
<path d="M0 34.992L5.546 0.793C5.691 -0.102 6.893 -0.296 7.313 0.508L18 20.992L0 34.992Z" fill="#FFA000"/>
<path d="M0.0078125 34.986L0.207812 34.829L17.7368 20.488L12.7928 11.012L0.0078125 34.986Z" fill="#FF6F00"/>
<path d="M0 35L26.666 9.287C27.225 8.748 28.158 9.066 28.272 9.834L32 35L17 43.743C16.391 44.085 15.648 44.085 15.039 43.743L0 35Z" fill="#FFC400"/>
</svg>
