<svg width="32" height="44" viewBox="0 0 32 44" fill="none" xmlns="http://www.w3.org/2000/svg">
<path d="M0 34.9992L15.234 6.43518C15.555 5.83318 16.423 5.84418 16.728 6.45518L22 16.9992L0 34.9992Z" fill="#A7A7A7"/>
<path d="M0 34.9912L5.546 0.792183C5.691 -0.102817 6.893 -0.296817 7.313 0.507183L18 20.9912L0 34.9912Z" fill="#ABABAB"/>
<path d="M0.0078125 34.9852L0.207812 34.8282L17.7368 20.4872L12.7928 11.0112L0.0078125 34.9852Z" fill="#999998"/>
<path d="M0 34.9992L26.666 9.28619C27.225 8.74719 28.158 9.06519 28.272 9.83319L32 34.9992L17 43.7422C16.391 44.0842 15.648 44.0842 15.039 43.7422L0 34.9992Z" fill="#BBBBBB"/>
</svg>
