<svg width="46" height="42" viewBox="0 0 46 42" fill="none" xmlns="http://www.w3.org/2000/svg">
<path d="M23 31C10.1 31 0 26.6 0 21C0 15.4 10.1 11 23 11C35.9 11 46 15.4 46 21C46 26.6 35.9 31 23 31ZM23 13C10.4 13 2 17.1 2 21C2 24.9 10.4 29 23 29C35.6 29 44 24.9 44 21C44 17.1 35.6 13 23 13Z" fill="#80DEEA"/>
<path d="M14.1001 41.6C13.1001 41.6 12.3001 41.4 11.5001 40.9C6.60008 38.1 7.90008 27.2 14.3001 16C17.3001 10.8 21.0001 6.39999 24.6001 3.59999C28.5001 0.599992 32.0001 -0.300008 34.4001 1.09999C36.9001 2.49999 37.8001 5.99999 37.2001 10.9C36.6001 15.5 34.6001 20.9 31.6001 26.1C28.6001 31.3 24.9001 35.7 21.3001 38.5C18.7001 40.5 16.2001 41.6 14.1001 41.6ZM31.9001 2.39999C30.3001 2.39999 28.2001 3.29999 25.9001 5.09999C22.5001 7.79999 19.0001 12 16.1001 17C9.80008 27.9 9.20008 37.3 12.5001 39.2C14.2001 40.2 17.0001 39.3 20.1001 36.9C23.5001 34.2 27.0001 30 29.9001 25C32.8001 20 34.7001 14.9 35.3001 10.6C35.8001 6.59999 35.2001 3.79999 33.5001 2.79999C33.0001 2.59999 32.5001 2.39999 31.9001 2.39999Z" fill="#80DEEA"/>
<path d="M32.0001 41.6C27.0001 41.6 19.8001 35.5 14.4001 26C7.90006 14.8 6.60006 3.89999 11.5001 1.09999C16.4001 -1.70001 25.2001 4.79999 31.7001 16C34.7001 21.2 36.7001 26.6 37.3001 31.2C38.0001 36.1 37.0001 39.5 34.5001 41C33.7001 41.4 32.9001 41.6 32.0001 41.6ZM12.5001 2.79999C9.20006 4.69999 9.80006 14.1 16.1001 25C22.4001 35.9 30.2001 41.1 33.5001 39.2C35.2001 38.2 35.8001 35.4 35.3001 31.4C34.7001 27.1 32.8001 22 29.9001 17C23.6001 6.09999 15.8001 0.899994 12.5001 2.79999Z" fill="#80DEEA"/>
<path d="M23 25C25.2091 25 27 23.2091 27 21C27 18.7909 25.2091 17 23 17C20.7909 17 19 18.7909 19 21C19 23.2091 20.7909 25 23 25Z" fill="#80DEEA"/>
</svg>
