<svg height="100" viewBox="0 0 249 78" fill="none" xmlns="http://www.w3.org/2000/svg">
<path d="M44.7998 0H64.2998L44.5998 34.2C38.5998 23.5 38.6998 10.5 44.7998 0Z" fill="#BBBBBB"/>
<path d="M64.4 77.7L19.5 0H0L22.4 38.9L0 77.7H19.5L32.2 55.8L44.8 77.7H64.4Z" fill="#BBBBBB"/>
<path d="M78.1001 49.4C81.3001 52.1 85.0001 53.4 89.4001 53.5C94.6001 53.4 97.2001 51.5 97.3001 47.8C97.3001 44.7 95.6001 42.9 92.1001 42.3C90.5001 42.1 88.7001 41.8 86.8001 41.5C83.4001 40.9 80.8001 39.6 79.0001 37.6C77.2001 35.5 76.2001 33 76.2001 30C76.2001 26.4 77.4001 23.5 79.7001 21.3C81.9001 19.1 85.1001 18 89.2001 18C94.1001 18.1 98.4001 19.5 102.1 22.2L98.7001 27.3C95.7001 25.3 92.4001 24.2 88.9001 24.1C87.0001 24.1 85.5001 24.6 84.3001 25.5C83.0001 26.5 82.3001 28 82.3001 29.9C82.3001 31.1 82.7001 32.2 83.6001 33.1C84.5001 34.1 85.9001 34.8 87.9001 35.1C89.0001 35.3 90.5001 35.5 92.4001 35.7C96.1001 36.2 98.9001 37.6 100.7 39.8C102.5 42 103.3 44.5 103.3 47.5C103 55.6 98.4001 59.5 89.3001 59.6C83.4001 59.6 78.4001 57.7 74.1001 54L78.1001 49.4Z" fill="#BBBBBB"/>
<path d="M124.5 23.8H113.6V18.3H141.4V23.8H130.5V59.3H124.5V23.8Z" fill="#BBBBBB"/>
<path d="M169.9 50.1H154.8L151.7 59.3H145.3L159.7 18.3H164.7L179.1 59.3H173L169.9 50.1ZM168.2 44.6L162.5 26.7H162.4L156.6 44.6H168.2Z" fill="#BBBBBB"/>
<path d="M194.4 23.8H183.5V18.3H211.3V23.8H200.4V59.3H194.4V23.8Z" fill="#BBBBBB"/>
<path d="M223.2 18.3H248.6V24.1H229.2V35.8H245.7V41.3H229.2V53.4H248.6V59.2H223.2V18.3Z" fill="#BBBBBB"/>
</svg>
