<svg width="249" height="79" viewBox="0 0 249 79" fill="none" xmlns="http://www.w3.org/2000/svg">
<path d="M44.7998 0.400002H64.2998L44.5998 34.6C38.5998 23.9 38.6998 10.9 44.7998 0.400002Z" fill="black"/>
<path d="M64.4 78.1L19.5 0.400002H0L22.4 39.3L0 78.1H19.5L32.2 56.2L44.8 78.1H64.4Z" fill="black"/>
<path d="M78.1001 49.8C81.3001 52.5 85.0001 53.8 89.4001 53.9C94.6001 53.8 97.2001 51.9 97.3001 48.2C97.3001 45.1 95.6001 43.3 92.1001 42.7C90.5001 42.5 88.7001 42.2 86.8001 41.9C83.4001 41.3 80.8001 40 79.0001 38C77.2001 35.9 76.2001 33.4 76.2001 30.4C76.2001 26.8 77.4001 23.9 79.7001 21.7C81.9001 19.5 85.1001 18.4 89.2001 18.4C94.1001 18.5 98.4001 19.9 102.1 22.6L98.7001 27.7C95.7001 25.7 92.4001 24.6 88.9001 24.5C87.0001 24.5 85.5001 25 84.3001 25.9C83.0001 26.9 82.3001 28.4 82.3001 30.3C82.3001 31.5 82.7001 32.6 83.6001 33.5C84.5001 34.5 85.9001 35.2 87.9001 35.5C89.0001 35.7 90.5001 35.9 92.4001 36.1C96.1001 36.6 98.9001 38 100.7 40.2C102.5 42.4 103.3 44.9 103.3 47.9C103 56 98.4001 59.9 89.3001 60C83.4001 60 78.4001 58.1 74.1001 54.4L78.1001 49.8Z" fill="black"/>
<path d="M124.5 24.2H113.6V18.7H141.4V24.2H130.5V59.7H124.5V24.2Z" fill="black"/>
<path d="M169.9 50.5H154.8L151.7 59.7H145.3L159.7 18.7H164.7L179.1 59.7H173L169.9 50.5ZM168.2 45L162.5 27.1H162.4L156.6 45H168.2Z" fill="black"/>
<path d="M194.4 24.2H183.5V18.7H211.3V24.2H200.4V59.7H194.4V24.2Z" fill="black"/>
<path d="M223.2 18.7H248.6V24.5H229.2V36.2H245.7V41.7H229.2V53.8H248.6V59.6H223.2V18.7V18.7Z" fill="black"/>
</svg>
